<svg width="26" height="26" viewBox="0 0 26 26" fill="none" xmlns="http://www.w3.org/2000/svg">
<g clip-path="url(#clip0)">
<path d="M18.7479 20.0439H21.875L18.4935 23.6489V20.2983C18.4935 20.158 18.6077 20.0439 18.7479 20.0439ZM23.7579 1.12108V18.8018H18.7479C17.9226 18.8018 17.2513 19.4732 17.2513 20.2983V25.84H5.12108C4.77799 25.84 4.5 25.5618 4.5 25.2189V1.12108C4.5 0.778118 4.77799 0.5 5.12108 0.5H23.1367C23.4798 0.5 23.7579 0.778118 23.7579 1.12108ZM14.9859 19.4229C14.9859 19.0799 14.7079 18.8018 14.3648 18.8018H8.07343C7.73035 18.8018 7.45235 19.0799 7.45235 19.4229C7.45235 19.7658 7.73035 20.0439 8.07343 20.0439H14.3649C14.7079 20.0439 14.9859 19.7658 14.9859 19.4229ZM17.6265 15.6343C17.6265 15.2913 17.3485 15.0132 17.0054 15.0132H8.07343C7.73035 15.0132 7.45235 15.2913 7.45235 15.6343C7.45235 15.9773 7.73035 16.2554 8.07343 16.2554H17.0054C17.3485 16.2554 17.6265 15.9773 17.6265 15.6343ZM19.5634 11.8457C19.5634 11.5028 19.2854 11.2246 18.9423 11.2246C18.5992 11.2246 8.07343 11.2246 8.07343 11.2246C7.73035 11.2246 7.45235 11.5028 7.45235 11.8457C7.45235 12.1887 7.73035 12.4668 8.07343 12.4668H18.9423C19.2854 12.4668 19.5634 12.1887 19.5634 11.8457Z" fill="#F16521"/>
<path d="M8.09112 8.70177L7.07495 5.07258H7.82671L8.52144 7.76337L9.27839 5.07258H9.89017L10.6523 7.76337L11.347 5.07258H12.0988L11.0826 8.70177H10.2686L9.58428 6.30651L8.9051 8.70177H8.09112Z" fill="white"/>
<path d="M14.6391 8.70177L14.4214 8.04852H12.9749L12.7571 8.70177H11.9846L13.2549 5.07258H14.1414L15.4168 8.70177H14.6391ZM13.203 7.37971H14.1985L13.7007 5.89693L13.203 7.37971Z" fill="white"/>
<path d="M16.4847 8.01741H18.0141V8.70177H15.7692V5.07258H17.9882V5.75695H16.4847V6.52944H17.8586V7.20344H16.4847V8.01741Z" fill="white"/>
<path d="M20.2144 8.77436C19.6683 8.77436 19.2172 8.5929 18.8612 8.22998C18.5052 7.86706 18.3272 7.41946 18.3272 6.88718C18.3272 6.35144 18.5052 5.90384 18.8612 5.54438C19.2172 5.18146 19.6683 5 20.2144 5C20.5428 5 20.8452 5.07777 21.1217 5.23331C21.4017 5.38539 21.6194 5.59277 21.775 5.85545L21.158 6.21319C21.0681 6.05074 20.9402 5.92458 20.7743 5.83471C20.6084 5.74139 20.4218 5.69473 20.2144 5.69473C19.8618 5.69473 19.5767 5.80533 19.3589 6.02654C19.1447 6.24775 19.0375 6.53463 19.0375 6.88718C19.0375 7.23627 19.1447 7.52142 19.3589 7.74263C19.5767 7.96384 19.8618 8.07444 20.2144 8.07444C20.4218 8.07444 20.6084 8.02951 20.7743 7.93964C20.9437 7.84632 21.0716 7.72016 21.158 7.56117L21.775 7.91891C21.6194 8.18159 21.4034 8.3907 21.1269 8.54624C20.8504 8.69832 20.5462 8.77436 20.2144 8.77436Z" fill="white"/>
</g>
<defs>
<clipPath id="clip0">
<rect width="25.34" height="25.34" fill="white" transform="translate(0.660156 0.460266)"/>
</clipPath>
</defs>
</svg>
